<svg preserveAspectRatio="none" width="100%" height="100%" overflow="visible" style="display: block;" viewBox="0 0 94 26.1111" fill="none" xmlns="http://www.w3.org/2000/svg">
<g id="Vector">
<path d="M13.9867 8.40176C14.7323 8.42834 15.4808 8.3855 16.2261 8.41638C17.0762 8.45161 17.8925 8.61181 18.5976 9.12502C19.282 9.62307 19.6728 10.2928 19.908 11.0535C20.1217 11.7447 20.1848 12.458 20.151 13.2097C20.138 14.2709 19.8841 15.2381 19.2541 16.0859C18.5902 16.9793 17.6897 17.4954 16.5109 17.5016C15.6285 17.5063 14.7458 17.4926 13.8636 17.5082C13.6043 17.5128 13.5499 17.4383 13.5507 17.2013C13.56 14.4069 13.5673 11.6124 13.5438 8.81811C13.5407 8.45299 13.6354 8.38924 13.9867 8.40176Z" fill="var(--fill-0, white)"/>
<path d="M34.8726 8.40283C35.991 8.41327 37.1107 8.37981 38.2278 8.41733C38.9416 8.4413 39.6454 8.57139 40.0655 9.23591C40.5112 9.94107 40.4212 11.2678 39.8618 11.9322C39.4869 12.3228 39.0124 12.4614 38.5112 12.4696C37.2914 12.4895 36.0709 12.4704 34.8508 12.4801C34.6154 12.4819 34.5421 12.4166 34.5442 12.1906C34.5549 11.0315 34.5559 9.87216 34.5438 8.71308C34.5413 8.46972 34.623 8.40051 34.8726 8.40283Z" fill="var(--fill-0, white)"/>
<path fill-rule="evenodd" clip-rule="evenodd" d="M33.2619 0.000272748C48.9929 0.000255521 64.69 -0.00130514 80.3871 0.00323427C81.6195 0.00359155 82.8551 0.147332 84.0238 0.479375C86.3743 1.14721 88.4584 2.2922 90.168 3.99785C91.2478 5.07518 92.1236 6.28112 92.7763 7.63881C93.3597 8.85256 93.7471 10.1191 93.9116 11.4361C94.0323 12.4023 94.0194 13.3786 93.9328 14.3547C93.835 15.4554 93.5571 16.5087 93.1775 17.547C92.7004 18.8521 91.9933 20.0372 91.0938 21.112C89.2398 23.3269 86.8931 24.8569 84.0064 25.6142C83.0521 25.8645 82.0859 26.0138 81.0948 26.0701C80.5301 26.1022 79.9676 26.1077 79.4046 26.1078C57.4265 26.111 35.4483 26.1155 13.4702 26.1013C11.6085 26.1001 9.81576 25.6969 8.10913 24.9584C6.82699 24.4035 5.67051 23.6828 4.61645 22.7974C2.36192 20.9036 0.955464 18.5454 0.314061 15.7658C0.067587 14.6977 -0.0451014 13.6098 0.0166093 12.5199C0.100895 11.0315 0.404628 9.57831 1.00141 8.19113C1.62771 6.73534 2.50125 5.4335 3.61341 4.26179C5.02675 2.77277 6.72172 1.6928 8.6659 0.94512C9.8132 0.5039 11.0023 0.23384 12.2346 0.105683C13.0416 0.021754 13.8475 0.000284555 14.6564 0.000272748C20.847 0.000183196 27.0375 0.000272748 33.2619 0.000272748ZM65.2849 5.94016C64.0627 5.84965 62.8703 6.03343 61.7484 6.5219C60.5362 7.04966 59.5761 7.86203 58.8905 8.94778C58.0451 10.2864 57.7372 11.748 57.7928 13.3023C57.8404 14.6315 58.1774 15.8686 58.9014 17.0071C59.6201 18.1374 60.6079 18.9796 61.8921 19.4971C62.9854 19.9377 64.1181 20.0987 65.3093 20.02C66.194 19.9616 67.0343 19.7864 67.8292 19.4316C69.0106 18.9044 69.9229 18.0878 70.5494 17.0002C70.9183 16.3599 71.1678 15.6759 71.2731 14.9455C71.2958 14.7876 71.2662 14.7641 71.1201 14.7647C70.2714 14.7681 69.4226 14.7675 68.5738 14.765C68.4552 14.7646 68.3799 14.7966 68.3594 14.9173C68.261 15.4975 67.9507 15.9935 67.6361 16.5062C66.8623 17.3437 65.9233 17.7502 64.7616 17.7356C63.2088 17.716 62.1017 17.0095 61.3615 15.7672C60.7192 14.689 60.5162 13.521 60.6682 12.2793C60.773 11.4231 60.9997 10.6224 61.5073 9.90945C62.0027 9.21351 62.6282 8.65315 63.5043 8.41405C64.0861 8.25522 64.6687 8.17911 65.2894 8.26245C66.1803 8.3821 66.8915 8.74803 67.4108 9.43318C67.9283 10.1161 67.9676 10.9089 67.9026 11.709C67.8892 11.8745 67.9124 11.9144 68.0802 11.9133C68.895 11.908 69.7099 11.9077 70.5247 11.9136C70.6883 11.9147 70.7241 11.8519 70.7463 11.7079C70.8172 11.2488 70.8034 10.797 70.7408 10.3362C70.5905 9.22844 70.0865 8.28739 69.251 7.52521C68.1504 6.52128 66.7824 6.05106 65.2849 5.94016ZM16.649 6.22463C14.8068 6.15916 12.9598 6.21762 11.1151 6.20617C10.8383 6.20445 10.7827 6.29183 10.7836 6.5367C10.7925 9.05265 10.789 11.5687 10.789 14.1169C10.789 15.9017 10.7956 17.6544 10.7823 19.4069C10.7802 19.6822 10.8692 19.7467 11.1455 19.7431C12.2317 19.7288 13.3185 19.7446 14.4049 19.7351C15.4304 19.7262 16.4615 19.8112 17.48 19.6691C19.13 19.439 20.5074 18.7268 21.5349 17.4576C22.6251 16.111 22.9978 14.5416 23.0034 12.8883C23.0061 12.1278 22.8929 11.3646 22.6584 10.6238C21.7989 7.90807 19.5145 6.32648 16.649 6.22463ZM83.9237 6.20466C83.1664 6.22539 82.4079 6.21165 81.616 6.21165C80.4055 6.21165 79.2289 6.21167 78.0523 6.21165C76.2196 6.21163 74.3869 6.21131 72.5542 6.21203C72.3923 6.21209 72.2084 6.16135 72.214 6.43016C72.2264 7.03179 72.2205 7.63385 72.2156 8.23568C72.2144 8.3878 72.2639 8.42002 72.4312 8.41859C73.766 8.40716 75.1012 8.42269 76.4358 8.40283C76.7869 8.39761 76.8649 8.50055 76.8638 8.82227C76.8513 12.326 76.8621 15.8297 76.8466 19.3334C76.845 19.6827 76.9553 19.758 77.2959 19.7447C77.9397 19.7197 78.5862 19.7183 79.2297 19.7453C79.5691 19.7595 79.6402 19.6482 79.6316 19.3479C79.6094 18.5747 79.6242 17.8004 79.6242 17.0266C79.6242 14.2752 79.6282 11.5238 79.6181 8.77243C79.617 8.49559 79.6857 8.40026 79.993 8.40397C81.2938 8.4197 82.5956 8.39004 83.8956 8.42457C84.2463 8.43388 84.2774 8.33122 84.2687 8.06354C84.2524 7.55889 84.2491 7.05283 84.2702 6.54849C84.281 6.28972 84.2168 6.19664 83.9237 6.20466ZM38.609 6.22293C36.4603 6.1873 34.3104 6.21685 32.161 6.20655C31.8887 6.20525 31.7955 6.25992 31.8 6.53784C31.8179 7.6553 31.8074 8.7732 31.8075 9.92318C31.8075 13.1044 31.8108 16.2534 31.8015 19.4023C31.8007 19.6669 31.8688 19.7526 32.1565 19.7437C32.8232 19.7229 33.4916 19.7235 34.1584 19.7433C34.4597 19.7522 34.5649 19.6838 34.5612 19.375C34.5433 17.8813 34.5587 16.3873 34.5473 14.8935C34.5454 14.6544 34.6083 14.5811 34.8669 14.5845C35.93 14.5982 36.9936 14.5935 38.0569 14.5876C38.3343 14.586 38.5891 14.6517 38.8381 14.7549C39.6731 15.1012 40.0339 15.7941 40.2716 16.5621C40.563 17.5036 40.6558 18.4774 40.7232 19.4516C40.7405 19.7005 40.8503 19.7463 41.0843 19.7418C41.7627 19.7287 42.4417 19.7375 43.1205 19.737C43.5048 19.7367 43.5538 19.6903 43.4971 19.3294C43.3997 18.7091 43.3441 18.0833 43.2019 17.4685C42.996 16.5782 42.6948 15.7337 42.1349 14.9756C41.7756 14.4892 41.3024 14.1461 40.7939 13.8447C40.8128 13.7614 40.8725 13.7542 40.9229 13.7333C41.948 13.3078 42.6311 12.5876 42.9748 11.5774C43.1917 10.94 43.2382 10.2953 43.1473 9.62598C43.0096 8.61173 42.5555 7.7762 41.7099 7.14875C40.8024 6.47537 39.7223 6.2414 38.609 6.22293ZM25.9429 6.20611C25.674 6.19892 25.6235 6.29658 25.6237 6.52246C25.6286 10.8443 25.6288 15.1662 25.6226 19.4881C25.6223 19.6829 25.6675 19.7456 25.8807 19.7418C26.5934 19.7292 27.3069 19.7253 28.0193 19.743C28.2971 19.7499 28.3826 19.6796 28.3813 19.406C28.3699 17.0086 28.3747 14.6111 28.3747 12.1813C28.3747 10.2784 28.3703 8.40775 28.3799 6.53715C28.3812 6.29347 28.3249 6.1991 28.0474 6.2063C27.3463 6.2245 26.6439 6.22486 25.9429 6.20611ZM55.6411 6.20535C52.6532 6.21536 49.6651 6.21542 46.6771 6.20542C46.4003 6.20449 46.3302 6.29237 46.3304 6.53469C46.3349 10.8464 46.335 15.1582 46.329 19.4699C46.3287 19.689 46.4102 19.7412 46.625 19.7409C49.7148 19.7359 52.8047 19.736 55.8945 19.741C56.0828 19.7413 56.1462 19.6975 56.1416 19.51C56.1281 18.9619 56.1186 18.4125 56.1442 17.8652C56.1578 17.5747 56.0765 17.492 55.762 17.4941C53.6796 17.5083 51.597 17.5016 49.5145 17.5014C49.0851 17.5014 49.085 17.5011 49.0849 17.0792C49.0849 16.1008 49.0975 15.122 49.0774 14.1439C49.0712 13.8433 49.1392 13.741 49.4794 13.7445C51.1883 13.7619 52.8975 13.7483 54.6064 13.7571C54.8502 13.7584 54.9229 13.7186 54.9058 13.4608C54.8701 12.9253 54.8684 12.3846 54.9052 11.8492C54.9244 11.5697 54.8545 11.5158 54.5729 11.5179C52.8753 11.5309 51.1774 11.5152 49.4798 11.5321C49.1446 11.5354 49.068 11.4405 49.0771 11.1363C49.1006 10.352 49.1009 9.56622 49.077 8.78195C49.0677 8.47674 49.1709 8.40288 49.4772 8.40472C51.3899 8.41626 53.3027 8.41088 55.2155 8.41002C55.458 8.40991 55.805 8.49281 55.9154 8.37631C56.0423 8.24242 55.9596 7.92933 55.968 7.66232C55.968 7.26496 55.9535 6.89868 55.9731 6.53406C55.9862 6.28912 55.9194 6.20443 55.6411 6.20535ZM89.5103 6.20485C89.3288 6.211 89.2942 6.31864 89.2437 6.44251C89.044 6.93214 88.8381 7.41943 88.6108 7.96424C88.5424 7.82375 88.5051 7.74794 88.4686 7.67183C88.2405 7.19707 88.1152 6.68122 87.8044 6.22161C87.633 6.24951 87.3838 6.08949 87.3838 6.40193C87.3838 7.02468 87.3843 7.64746 87.3834 8.27021C87.3832 8.37699 87.3927 8.444 87.5477 8.44278C87.6988 8.44158 87.7465 8.40421 87.7444 8.26529C87.7387 7.88957 87.741 7.51369 87.7443 7.13791C87.7448 7.07295 87.697 6.97967 87.8473 6.95828C87.9878 7.29929 88.1177 7.64987 88.2778 7.98749C88.3529 8.14603 88.3164 8.42395 88.5869 8.41909C88.8548 8.41424 88.848 8.14439 88.9333 7.97155C88.9476 7.9426 88.956 7.91105 88.9686 7.88127C89.0983 7.57438 89.2282 7.2676 89.3582 6.9608C89.3892 6.96759 89.4202 6.97436 89.4512 6.98115C89.4512 7.39495 89.4583 7.80895 89.4477 8.22251C89.4434 8.3928 89.5075 8.42513 89.6789 8.43793C89.9011 8.45452 89.8582 8.32475 89.8589 8.21671C89.8624 7.64767 89.8423 7.07784 89.8684 6.50986C89.8816 6.2245 89.7493 6.19675 89.5103 6.20485ZM86.9586 6.20592C86.474 6.2097 85.9893 6.20953 85.5047 6.20611C85.3696 6.20515 85.3313 6.26595 85.3306 6.38347C85.33 6.51178 85.3948 6.55065 85.5183 6.54773C85.6533 6.54453 85.7887 6.55117 85.9543 6.56229C86.0697 6.66361 86.0329 6.77575 86.0339 6.87908C86.0382 7.31807 86.0319 7.75718 86.0388 8.19611C86.0403 8.2946 85.9708 8.44291 86.1979 8.43591C86.3875 8.43006 86.4569 8.36487 86.4536 8.18893C86.4466 7.81427 86.4517 7.43941 86.4517 7.06464C86.4518 6.5859 86.4515 6.58099 86.9405 6.5505C87.076 6.54205 87.156 6.51292 87.1514 6.37005C87.1474 6.24797 87.0841 6.20494 86.9586 6.20592Z" fill="var(--fill-0, white)"/>
</g>
</svg>
