<svg preserveAspectRatio="none" width="100%" height="100%" overflow="visible" style="display: block;" viewBox="0 0 24 24" fill="none" xmlns="http://www.w3.org/2000/svg">
<g id="InstagramLogo" clip-path="url(#clip0_0_94)">
<g id="Vector">
</g>
<path id="Vector_2" d="M12 15.75C14.0711 15.75 15.75 14.0711 15.75 12C15.75 9.92893 14.0711 8.25 12 8.25C9.92893 8.25 8.25 9.92893 8.25 12C8.25 14.0711 9.92893 15.75 12 15.75Z" stroke="var(--stroke-0, white)" stroke-width="2" stroke-miterlimit="10"/>
<path id="Vector_3" d="M16.5 3.00195H7.5C5.01472 3.00195 3 5.01667 3 7.50195V16.502C3 18.9872 5.01472 21.002 7.5 21.002H16.5C18.9853 21.002 21 18.9872 21 16.502V7.50195C21 5.01667 18.9853 3.00195 16.5 3.00195Z" stroke="var(--stroke-0, white)" stroke-width="2" stroke-linecap="round" stroke-linejoin="round"/>
<path id="Vector_4" d="M16.875 8.25195C17.4963 8.25195 18 7.74827 18 7.12695C18 6.50563 17.4963 6.00195 16.875 6.00195C16.2537 6.00195 15.75 6.50563 15.75 7.12695C15.75 7.74827 16.2537 8.25195 16.875 8.25195Z" fill="var(--fill-0, white)"/>
</g>
<defs>
<clipPath id="clip0_0_94">
<rect width="24" height="24" fill="white"/>
</clipPath>
</defs>
</svg>
