<svg preserveAspectRatio="none" width="100%" height="100%" overflow="visible" style="display: block;" viewBox="0 0 125 32" fill="none" xmlns="http://www.w3.org/2000/svg">
<g id="Vector">
<path fill-rule="evenodd" clip-rule="evenodd" d="M31.2722 0.141455C31.9616 0.321293 32.4464 0.720766 32.6613 1.40198C32.8002 1.84251 32.7687 2.29086 32.7085 2.73888C32.5371 4.01378 31.9188 5.10912 31.2136 6.15267C30.7658 6.81532 30.2341 7.42365 29.6774 8.00975C29.0052 8.7175 28.2755 9.36184 27.5286 9.98815C26.7522 10.6392 25.9297 11.2333 25.0635 11.7655C24.5229 12.0975 23.9824 12.434 23.4176 12.7229C22.7105 13.0845 21.9786 13.3981 21.2372 13.6911C20.5993 13.9432 19.9339 14.1099 19.2878 14.3358C18.9972 14.4375 18.6835 14.5016 18.376 14.5236C18.0534 14.5467 17.8915 14.732 17.7259 14.9587C17.0622 15.8676 16.3697 16.7561 15.6308 17.6069C14.928 18.4162 14.2041 19.2091 13.395 19.921C13.1374 20.1477 12.8827 20.3782 12.6141 20.5918C12.5194 20.667 12.5006 20.6911 12.6163 20.7498C13.3738 21.1336 14.1552 21.4323 15.0156 21.5213C15.5522 21.5768 16.0773 21.5641 16.6031 21.457C17.7223 21.2292 18.7142 20.7256 19.6432 20.0933C20.2763 19.6624 20.87 19.1832 21.4494 18.6826C22.1319 18.093 22.768 17.4591 23.4086 16.8289C23.5331 16.7063 23.6161 16.6878 23.7572 16.8004C24.2358 17.1822 24.7203 17.5573 25.211 17.924C25.32 18.0055 25.3243 18.0533 25.2382 18.146C24.6582 18.7707 24.1211 19.4275 23.6797 20.156C23.5377 20.3904 23.4313 20.6387 23.3714 20.903C23.2926 21.25 23.5928 21.54 24.018 21.5588C24.6896 21.5883 25.3159 21.3947 25.9252 21.164C26.9312 20.7829 27.8805 20.2846 28.8003 19.7322C28.9045 19.6697 28.9477 19.59 28.9525 19.4868C28.9944 18.5697 29.2744 17.7114 29.6183 16.8685C30.1835 15.4832 30.976 14.2259 31.8783 13.032C32.5515 12.1413 33.294 11.3068 34.1098 10.5397C35.2306 9.48564 36.4318 8.53539 37.8503 7.87994C38.6711 7.50065 39.5252 7.24267 40.4386 7.34691C41.5508 7.47384 42.0084 8.15512 41.8949 9.18325C41.8221 9.84286 41.5491 10.4428 41.2385 11.0287C40.708 12.0294 40.0333 12.9321 39.3073 13.7999C38.785 14.4243 38.2203 15.0115 37.6471 15.5924C36.9577 16.2908 36.2385 16.9595 35.4871 17.5883C34.5054 18.4098 33.4876 19.1921 32.4191 19.9067C32.1213 20.1059 31.8291 20.3137 31.5266 20.5057C31.4117 20.5786 31.3947 20.6324 31.4746 20.7444C31.8349 21.2491 32.3533 21.4394 32.9513 21.5183C33.2092 21.5523 33.4626 21.542 33.718 21.5515C34.305 21.5732 34.8691 21.4389 35.431 21.2971C35.9528 21.1654 36.4659 21.0047 36.967 20.8101C37.5388 20.5879 38.0966 20.3347 38.6553 20.0829C38.8599 19.9906 38.8825 19.8287 38.9049 19.6604C39.0856 18.3068 39.578 17.0596 40.2168 15.8561C40.6982 14.9494 41.2751 14.1029 41.9431 13.3277C42.8431 12.2833 43.8774 11.3707 45.0615 10.6346C45.7605 10.2001 46.508 9.84906 47.3166 9.68935C47.8672 9.5806 48.4448 9.55283 49.0035 9.75193C49.5585 9.94976 49.9424 10.4687 49.9578 11.0518C49.9767 11.7619 49.7757 12.4187 49.4742 13.0505C48.9388 14.1726 48.178 15.1402 47.3256 16.0462C46.7123 16.6981 46.0551 17.3028 45.3754 17.887C44.6794 18.4852 43.9473 19.0368 43.1946 19.5626C42.676 19.9249 42.1447 20.27 41.6178 20.621C41.3676 20.7876 41.375 20.8126 41.5898 21.0348C42.0812 21.5435 42.695 21.6336 43.3527 21.5269C44.5769 21.3282 45.6512 20.7783 46.6961 20.147C47.3482 19.753 47.9743 19.3292 48.5816 18.8737C49.1223 18.4681 49.6389 18.036 50.1416 17.587C50.1966 17.5379 50.2605 17.4973 50.3104 17.444C50.3912 17.3577 50.4504 17.3551 50.5517 17.4339C51.0747 17.8402 51.6037 18.2393 52.1372 18.6322C52.2823 18.739 52.1835 18.8031 52.1208 18.8787C51.8129 19.2504 51.4997 19.619 51.2356 20.0223C51.0829 20.2556 50.9411 20.4984 50.8231 20.7499C50.7349 20.938 50.6426 21.1555 50.7929 21.3508C50.9544 21.5608 51.2146 21.5053 51.4182 21.468C52.0589 21.3507 52.6497 21.1016 53.2218 20.786C54.1697 20.2632 55.0292 19.6237 55.8539 18.94C56.5684 18.3476 57.2798 17.7477 57.9068 17.0616C57.9578 17.0057 58.0008 17.0147 58.0582 17.0586C58.5791 17.4567 59.1024 17.8518 59.6244 18.2485C59.7091 18.3129 59.7342 18.3831 59.6393 18.4629C59.1032 18.9129 58.6439 19.4428 58.1001 19.8849C58.0771 19.9036 58.0567 19.9253 58.0354 19.9459C57.12 20.83 56.183 21.694 55.2962 22.6049C54.6309 23.2882 53.9646 23.972 53.3295 24.6855C52.6379 25.4625 51.9506 26.2409 51.3073 27.0566C50.3807 28.2313 49.5326 29.4559 48.8662 30.7929C48.6739 31.1788 48.5196 31.583 48.3644 31.9894C48.333 32 48.2851 32 48.2193 32C47.9093 31.9184 47.5995 31.9364 47.3089 31.843C46.9325 31.722 46.5372 31.6713 46.1604 31.5491C45.8594 31.4515 45.8048 31.3759 45.9234 31.0836C46.1747 30.4639 46.4847 29.8719 46.8133 29.2872C47.4827 28.0963 48.2713 26.9841 49.1162 25.9107C49.691 25.1805 50.2968 24.4732 50.9308 23.7904C50.9889 23.7278 51.0536 23.6715 51.1176 23.6075C50.6848 23.6766 50.2555 23.7388 49.8212 23.7042C49.057 23.6432 48.4359 23.3619 48.1206 22.6182C48.0765 22.5143 48.0541 22.4106 48.0385 22.3015C47.9806 21.8987 47.9781 21.8971 47.623 22.0937C47.1348 22.364 46.6387 22.6184 46.1252 22.8405C44.8105 23.4091 43.447 23.7737 41.9993 23.6999C40.9181 23.6448 39.9821 23.2561 39.3085 22.3787C39.1455 22.1665 39.0773 22.1597 38.8364 22.2684C37.9538 22.6666 37.0516 23.0108 36.114 23.2701C35.312 23.4919 34.4968 23.6311 33.6702 23.691C32.5265 23.7739 31.4147 23.6596 30.4067 23.0504C30.0319 22.8239 29.7195 22.536 29.4575 22.1911C29.3015 21.9856 29.2293 21.9656 29.0058 22.0867C28.2723 22.4843 27.5112 22.8271 26.7248 23.1042C25.6164 23.4948 24.4803 23.7763 23.2847 23.7043C22.7457 23.6719 22.2462 23.5142 21.7845 23.2383C21.3478 22.9774 21.1347 22.5645 20.9761 22.113C20.8892 21.8657 20.8644 21.8608 20.6339 21.9929C19.6449 22.5596 18.6295 23.0733 17.5234 23.3867C16.4345 23.6952 15.3255 23.7818 14.197 23.6544C13.4183 23.5665 12.6758 23.3571 11.9572 23.0601C11.5027 22.8723 11.0589 22.6614 10.6433 22.3989C10.4771 22.2939 10.3204 22.29 10.138 22.3776C9.50771 22.6804 8.86502 22.957 8.19231 23.1584C7.27591 23.4329 6.34192 23.6086 5.38295 23.6703C4.97938 23.6962 4.57675 23.7154 4.17406 23.7039C3.15234 23.6745 2.17242 23.4776 1.29253 22.9366C0.909552 22.7011 0.578087 22.4104 0.337378 22.0253C0.211523 21.824 0.172657 21.6012 0.10511 21.3681C-0.0153414 20.9533 -0.0492294 20.2557 0.0942412 19.8804C0.194115 19.6193 0.250071 19.3659 0.395314 19.1379C0.707539 18.6478 1.1563 18.3169 1.65456 18.043C2.28759 17.695 2.97567 17.4969 3.69471 17.4246C4.2039 17.3733 4.71499 17.3597 5.23071 17.3952C5.6931 17.4271 6.14944 17.4756 6.60223 17.5665C6.99002 17.6444 7.37267 17.7412 7.74114 17.8849C8.05346 18.0068 8.37123 18.1141 8.6802 18.2455C9.17583 18.4562 9.64581 18.7097 10.0941 19.004C10.3782 19.1904 10.473 19.2004 10.7262 18.9681C11.069 18.6534 11.429 18.3581 11.7631 18.0328C12.3892 17.4231 12.9574 16.7645 13.5323 16.1106C13.7274 15.8887 13.9016 15.6497 14.1104 15.4388C14.1662 15.3825 14.2448 15.3096 14.2133 15.2317C14.1723 15.1302 14.056 15.1744 13.9732 15.1753C13.3601 15.1814 12.747 15.1792 12.1375 15.1095C10.6021 14.9341 9.12036 14.5765 7.79846 13.7555C7.09225 13.317 6.47149 12.7674 6.04474 12.0534C5.70841 11.4906 5.48757 10.8858 5.42928 10.2161C5.31705 8.92669 5.67011 7.76776 6.36462 6.69674C6.62389 6.29691 6.91901 5.91807 7.28365 5.59446C7.70907 5.21693 8.07276 4.77648 8.54566 4.44528C9.16056 4.01463 9.79028 3.61441 10.4657 3.27668C11.2404 2.88929 12.0393 2.56445 12.8632 2.30078C13.6591 2.04606 14.4843 1.90682 15.3091 1.77294C15.5112 1.74013 15.6689 1.79215 15.77 1.99253C15.9218 2.29382 16.0627 2.60058 16.2058 2.90524C16.3023 3.11084 16.4272 3.3036 16.5024 3.51946C16.5903 3.77166 16.5337 3.86985 16.2625 3.91018C15.1441 4.07651 14.0481 4.3351 12.9936 4.73634C11.8588 5.16819 10.805 5.74673 9.87647 6.52698C9.20478 7.09142 8.66012 7.74792 8.31466 8.55975C7.79329 9.785 8.3589 11.0387 9.37078 11.7067C10.3177 12.3318 11.3727 12.6327 12.4903 12.7834C13.209 12.8803 13.9259 12.8828 14.6485 12.8768C15.0662 12.8734 15.4724 12.8025 15.8851 12.7782C16.0918 12.7661 16.2588 12.6674 16.3887 12.4907C17.0611 11.5754 17.7293 10.6572 18.4235 9.75743C19.0456 8.95124 19.6622 8.14002 20.3191 7.36147C21.0851 6.45365 21.8501 5.54528 22.6875 4.69532C23.5865 3.78287 24.4866 2.87418 25.5039 2.08845C26.4632 1.3475 27.4729 0.684708 28.6363 0.275175C29.1776 0.0846305 29.899 0 30.4785 0C30.7784 0 30.9501 0.0574311 31.2722 0.141455ZM7.76734 20.3423C6.59801 19.7415 5.39014 19.3622 4.0656 19.4676C3.56537 19.5074 3.07847 19.622 2.69127 19.9492C2.32954 20.2549 2.20795 20.7283 2.62413 21.1019C2.84129 21.2969 3.09181 21.4169 3.36936 21.4769C4.34315 21.6876 5.3108 21.6186 6.27644 21.4052C6.72398 21.3064 7.15041 21.1484 7.57964 20.9984C7.82559 20.9125 8.05933 20.7929 8.3286 20.6754C8.12384 20.553 7.95311 20.451 7.76734 20.3423ZM41.2585 18.6624C41.2593 18.6603 41.2632 18.6625 41.2591 18.6617L41.2587 18.6614C41.2585 18.6625 41.2583 18.663 41.2585 18.6624ZM47.4 11.8131C47.2969 11.7167 47.173 11.7636 47.0653 11.7982C46.8403 11.8707 46.6325 11.984 46.431 12.1047C45.8141 12.4744 45.2768 12.9421 44.7661 13.4382C43.9641 14.217 43.2421 15.0619 42.6085 15.9796C42.0965 16.7212 41.6343 17.4878 41.3215 18.3329C41.2831 18.4368 41.1914 18.5376 41.2563 18.6486C41.2529 18.6454 41.2541 18.6512 41.2603 18.6515C41.2594 18.6532 41.2558 18.6602 41.2587 18.6614C41.2591 18.6589 41.26 18.653 41.2603 18.6515C41.2617 18.6516 41.2635 18.6514 41.2655 18.6507C41.3242 18.5943 41.3723 18.5477 41.4266 18.5098C42.0696 18.0613 42.6827 17.5743 43.2732 17.0635C44.0551 16.3872 44.8132 15.6851 45.51 14.9211C46.0492 14.3299 46.5661 13.7243 46.9919 13.0477C47.1727 12.7604 47.33 12.4634 47.4305 12.139C47.4661 12.0241 47.5034 11.9097 47.4 11.8131ZM39.3859 9.72303C39.4263 9.52992 39.3105 9.42865 39.1126 9.47303C38.9659 9.50593 38.8287 9.55685 38.6974 9.62715C37.8754 10.0673 37.1669 10.6578 36.4871 11.2769C35.4056 12.262 34.4017 13.3199 33.5123 14.4787C32.7866 15.4245 32.1211 16.406 31.6398 17.4966C31.5553 17.6879 31.4545 17.8778 31.4097 18.1561C31.9799 17.7011 32.5019 17.2954 33.0112 16.875C33.5148 16.4593 34.0057 16.0288 34.5136 15.5939C34.7611 15.33 35.0341 15.1148 35.2822 14.875C35.9122 14.2661 36.5246 13.6412 37.1181 12.9964C37.7102 12.3531 38.2726 11.6905 38.7667 10.9738C39.0326 10.5881 39.2879 10.1914 39.3859 9.72303ZM30.0763 2.9165C30.1135 2.69511 29.9028 2.45613 29.694 2.47947C29.3041 2.52305 28.9539 2.67716 28.6248 2.8692C27.707 3.40485 26.909 4.09168 26.1232 4.81727C25.9638 5.02284 25.7547 5.15234 25.5766 5.31456C25.2963 5.56993 25.0594 5.87104 24.7879 6.13132C24.0415 6.84681 23.3742 7.62968 22.6992 8.40533C21.9008 9.32287 21.1539 10.2822 20.4212 11.2513C20.2658 11.4569 20.088 11.6498 19.9355 11.9424C20.3119 11.7971 20.6253 11.6787 20.9367 11.5555C21.963 11.1492 22.9176 10.612 23.8344 10.0094C24.7153 9.4304 25.5386 8.7797 26.3257 8.08183C27.049 7.44064 27.7029 6.73969 28.3244 6.00542C28.6973 5.5649 29.0277 5.09588 29.3399 4.61504C29.6803 4.0908 29.9714 3.54143 30.0763 2.9165Z" fill="var(--fill-0, white)"/>
<path d="M26.0366 13.5515C26.3978 13.4042 26.7561 13.3877 27.1367 13.5371C27.6986 13.726 28.058 14.221 28.0969 14.8248C28.1332 15.3883 27.7702 15.9812 27.2854 16.2042C26.3459 16.6365 25.3535 16.0951 25.1701 15.2348C25.0162 14.5133 25.3184 13.8443 26.0366 13.5515Z" fill="var(--fill-0, white)"/>
<path d="M72.1282 11.1249C72.6209 11.1431 73.1155 11.1139 73.608 11.1349C74.1697 11.1589 74.7091 11.2681 75.1751 11.618C75.6273 11.9576 75.8855 12.4142 76.0409 12.9328C76.1822 13.404 76.2238 13.8903 76.2015 14.4028C76.1929 15.1263 76.0251 15.7857 75.6089 16.3636C75.1702 16.9727 74.5751 17.3246 73.7962 17.3289C73.2131 17.332 72.6298 17.3227 72.0469 17.3333C71.8755 17.3364 71.8396 17.2857 71.8401 17.1241C71.8463 15.219 71.8511 13.3138 71.8356 11.4088C71.8335 11.1599 71.8961 11.1164 72.1282 11.1249Z" fill="var(--fill-0, white)"/>
<path d="M85.9294 11.1257C86.6684 11.1328 87.4083 11.11 88.1464 11.1356C88.6181 11.1519 89.0832 11.2406 89.3607 11.6936C89.6553 12.1744 89.5958 13.0789 89.2262 13.5318C88.9784 13.7981 88.6649 13.8927 88.3337 13.8982C87.5277 13.9118 86.7212 13.8988 85.915 13.9054C85.7594 13.9066 85.711 13.8621 85.7124 13.708C85.7194 12.9178 85.7201 12.1274 85.7121 11.3372C85.7104 11.1713 85.7644 11.1241 85.9294 11.1257Z" fill="var(--fill-0, white)"/>
<path fill-rule="evenodd" clip-rule="evenodd" d="M84.8651 5.39716C95.2599 5.39715 105.632 5.39608 116.005 5.39918C116.819 5.39942 117.636 5.49742 118.408 5.72379C119.961 6.17909 121.338 6.9597 122.468 8.12254C123.181 8.85702 123.76 9.67918 124.191 10.6048C124.577 11.4323 124.833 12.2957 124.942 13.1936C125.021 13.8523 125.013 14.5179 124.956 15.1834C124.891 15.9339 124.707 16.6519 124.457 17.3598C124.141 18.2495 123.674 19.0575 123.08 19.7902C121.855 21.3003 120.304 22.3434 118.396 22.8597C117.766 23.0303 117.127 23.1321 116.472 23.1705C116.099 23.1923 115.728 23.1962 115.356 23.1962C100.833 23.1984 86.3098 23.2015 71.787 23.1918C70.5567 23.191 69.3721 22.9161 68.2444 22.4126C67.3972 22.0343 66.633 21.5429 65.9365 20.9393C64.4467 19.6482 63.5174 18.0404 63.0935 16.1454C62.9307 15.4173 62.8562 14.6756 62.897 13.9325C62.9527 12.9178 63.1534 11.9271 63.5477 10.9813C63.9616 9.98885 64.5388 9.10131 65.2737 8.30248C66.2076 7.28733 67.3276 6.55105 68.6123 6.04132C69.3704 5.74051 70.1562 5.55639 70.9705 5.46902C71.5037 5.4118 72.0363 5.39717 72.5708 5.39716C76.6614 5.3971 80.752 5.39716 84.8651 5.39716ZM106.025 9.44673C105.218 9.38502 104.43 9.51032 103.689 9.84333C102.888 10.2031 102.253 10.757 101.8 11.4972C101.241 12.4098 101.038 13.4063 101.075 14.4659C101.106 15.3721 101.329 16.2155 101.807 16.9917C102.282 17.7623 102.935 18.3365 103.783 18.6893C104.506 18.9897 105.254 19.0994 106.042 19.0458C106.626 19.0059 107.181 18.8865 107.707 18.6447C108.487 18.2852 109.09 17.7285 109.504 16.987C109.748 16.5505 109.913 16.0841 109.982 15.5862C109.997 15.4785 109.978 15.4625 109.881 15.4629C109.32 15.4653 108.76 15.4648 108.199 15.4631C108.12 15.4629 108.071 15.4847 108.057 15.567C107.992 15.9626 107.787 16.3006 107.579 16.6502C107.068 17.2212 106.447 17.4984 105.68 17.4884C104.654 17.475 103.922 16.9934 103.433 16.1464C103.008 15.4113 102.874 14.615 102.975 13.7685C103.044 13.1848 103.194 12.6389 103.529 12.1528C103.857 11.6784 104.27 11.2963 104.849 11.1333C105.233 11.025 105.618 10.9732 106.028 11.03C106.617 11.1115 107.087 11.361 107.43 11.8281C107.772 12.2937 107.798 12.8342 107.755 13.3797C107.746 13.4925 107.762 13.5197 107.873 13.519C108.411 13.5154 108.949 13.5152 109.488 13.5191C109.596 13.5199 109.62 13.4771 109.634 13.3789C109.681 13.0659 109.672 12.7579 109.631 12.4438C109.531 11.6885 109.198 11.047 108.646 10.5274C107.919 9.84291 107.015 9.52233 106.025 9.44673ZM73.8875 9.64067C72.6701 9.59604 71.4497 9.63589 70.2308 9.62808C70.0478 9.62691 70.0111 9.68648 70.0116 9.85343C70.0176 11.5687 70.0153 13.284 70.0153 15.0213C70.0153 16.2381 70.0196 17.433 70.0108 18.6278C70.0094 18.8155 70.0683 18.8595 70.2508 18.857C70.9686 18.8473 71.6867 18.858 72.4046 18.8516C73.0822 18.8455 73.7636 18.9034 74.4366 18.8066C75.5269 18.6497 76.437 18.1642 77.116 17.2989C77.8364 16.3808 78.0826 15.3108 78.0864 14.1837C78.0881 13.6652 78.0133 13.1449 77.8584 12.6399C77.2904 10.7884 75.7809 9.71011 73.8875 9.64067ZM118.342 9.62705C117.841 9.64119 117.34 9.63182 116.817 9.63182C116.017 9.63182 115.239 9.63183 114.462 9.63182C113.251 9.63181 112.04 9.63159 110.829 9.63208C110.722 9.63212 110.6 9.59752 110.604 9.78079C110.612 10.191 110.608 10.6014 110.605 11.0117C110.604 11.1154 110.637 11.1374 110.748 11.1364C111.63 11.1286 112.512 11.1392 113.394 11.1257C113.626 11.1221 113.677 11.1923 113.677 11.4116C113.668 13.8003 113.675 16.189 113.665 18.5777C113.664 18.8159 113.737 18.8671 113.962 18.8581C114.388 18.841 114.815 18.8401 115.24 18.8585C115.464 18.8682 115.511 18.7923 115.506 18.5876C115.491 18.0604 115.501 17.5326 115.501 17.005C115.501 15.1292 115.503 13.2534 115.497 11.3777C115.496 11.1889 115.541 11.1239 115.744 11.1265C116.604 11.1372 117.464 11.117 118.323 11.1405C118.555 11.1468 118.575 11.0769 118.57 10.8944C118.559 10.5503 118.557 10.2053 118.571 9.86146C118.578 9.68505 118.535 9.62159 118.342 9.62705ZM88.3984 9.63951C86.9785 9.61522 85.5579 9.63537 84.1376 9.62834C83.9576 9.62745 83.8961 9.66473 83.899 9.8542C83.9109 10.616 83.904 11.3782 83.904 12.1622C83.904 14.331 83.9062 16.4778 83.9 18.6246C83.8995 18.8051 83.9445 18.8635 84.1346 18.8574C84.5752 18.8432 85.0168 18.8437 85.4574 18.8571C85.6565 18.8632 85.726 18.8166 85.7236 18.606C85.7118 17.5877 85.7219 16.5691 85.7144 15.5507C85.7132 15.3877 85.7547 15.3378 85.9256 15.3401C86.6281 15.3494 87.3309 15.3462 88.0335 15.3422C88.2168 15.3411 88.3852 15.3859 88.5497 15.4563C89.1015 15.6924 89.3399 16.1647 89.4969 16.6883C89.6895 17.3302 89.7508 17.9941 89.7954 18.6582C89.8068 18.8279 89.8793 18.8592 90.034 18.8561C90.4823 18.8472 90.931 18.8532 91.3795 18.8528C91.6334 18.8526 91.6658 18.821 91.6283 18.575C91.564 18.152 91.5272 17.7254 91.4333 17.3063C91.2972 16.6993 91.0982 16.1235 90.7282 15.6067C90.4908 15.2751 90.1781 15.0412 89.8421 14.8357C89.8546 14.779 89.894 14.7741 89.9273 14.7598C90.6047 14.4697 91.0561 13.9787 91.2832 13.2899C91.4265 12.8554 91.4573 12.4159 91.3972 11.9596C91.3062 11.2681 91.0061 10.6985 90.4474 10.2707C89.8477 9.81161 89.134 9.6521 88.3984 9.63951ZM80.0287 9.62804C79.851 9.62314 79.8177 9.68972 79.8178 9.84372C79.8211 12.7902 79.8212 15.7367 79.8171 18.6832C79.8169 18.816 79.8467 18.8587 79.9877 18.8561C80.4586 18.8475 80.93 18.8449 81.4008 18.857C81.5844 18.8617 81.6409 18.8137 81.64 18.6272C81.6325 16.9927 81.6356 15.3582 81.6356 13.7017C81.6356 12.4044 81.6327 11.129 81.6391 9.85373C81.6399 9.6876 81.6027 9.62326 81.4193 9.62817C80.9561 9.64058 80.492 9.64082 80.0287 9.62804ZM99.653 9.62753C97.6786 9.63435 95.7041 9.63439 93.7297 9.62757C93.5468 9.62694 93.5004 9.68685 93.5006 9.85205C93.5035 12.7916 93.5036 15.7312 93.4996 18.6708C93.4994 18.8201 93.5532 18.8557 93.6952 18.8555C95.7369 18.8521 97.7787 18.8522 99.8204 18.8556C99.9448 18.8558 99.9867 18.8259 99.9837 18.6981C99.9747 18.3244 99.9684 17.9499 99.9854 17.5768C99.9943 17.3787 99.9407 17.3223 99.7328 17.3237C98.3568 17.3334 96.9807 17.3288 95.6046 17.3287C95.3208 17.3287 95.3207 17.3285 95.3207 17.0409C95.3207 16.3738 95.329 15.7066 95.3157 15.0397C95.3116 14.8347 95.3566 14.765 95.5814 14.7674C96.7106 14.7793 97.84 14.77 98.9693 14.776C99.1303 14.7769 99.1784 14.7497 99.167 14.574C99.1435 14.2089 99.1423 13.8403 99.1666 13.4753C99.1794 13.2847 99.1332 13.248 98.9471 13.2494C97.8253 13.2582 96.7034 13.2476 95.5816 13.2591C95.3601 13.2614 95.3095 13.1966 95.3155 12.9893C95.331 12.4546 95.3312 11.9188 95.3154 11.3841C95.3093 11.1761 95.3775 11.1257 95.5799 11.127C96.8438 11.1348 98.1078 11.1312 99.3717 11.1306C99.5319 11.1305 99.7612 11.187 99.8342 11.1076C99.918 11.0163 99.8634 10.8029 99.8689 10.6208C99.8689 10.3499 99.8593 10.1002 99.8723 9.85162C99.881 9.68463 99.8368 9.62689 99.653 9.62753ZM122.033 9.62718C121.913 9.63138 121.89 9.70476 121.857 9.78921C121.725 10.123 121.589 10.4552 121.439 10.8267C121.394 10.7309 121.369 10.6792 121.345 10.6273C121.194 10.3036 121.111 9.95195 120.906 9.63861C120.793 9.65763 120.628 9.54854 120.628 9.76155C120.628 10.1861 120.628 10.6107 120.628 11.0353C120.628 11.1081 120.634 11.1537 120.736 11.1529C120.836 11.1521 120.868 11.1266 120.866 11.0319C120.863 10.7758 120.864 10.5195 120.866 10.2633C120.867 10.219 120.835 10.1554 120.934 10.1408C121.027 10.3733 121.113 10.6123 121.219 10.8425C121.268 10.9506 121.244 11.1401 121.423 11.1368C121.6 11.1335 121.596 10.9495 121.652 10.8316C121.661 10.8119 121.667 10.7904 121.675 10.7701C121.761 10.5609 121.847 10.3517 121.933 10.1426C121.953 10.1472 121.974 10.1518 121.994 10.1564C121.994 10.4385 121.999 10.7208 121.992 11.0027C121.989 11.1188 122.031 11.1409 122.145 11.1496C122.292 11.1609 122.263 11.0724 122.264 10.9988C122.266 10.6108 122.253 10.2223 122.27 9.83513C122.279 9.64058 122.191 9.62166 122.033 9.62718ZM120.347 9.62791C120.027 9.63049 119.707 9.63038 119.386 9.62804C119.297 9.62739 119.272 9.66884 119.271 9.74896C119.271 9.83643 119.314 9.86293 119.395 9.86094C119.485 9.85876 119.574 9.86329 119.684 9.87087C119.76 9.93995 119.735 10.0164 119.736 10.0868C119.739 10.3861 119.735 10.6855 119.739 10.9847C119.74 11.0519 119.694 11.153 119.844 11.1482C119.97 11.1442 120.016 11.0998 120.013 10.9798C120.009 10.7244 120.012 10.4689 120.012 10.2133C120.012 9.88697 120.012 9.88362 120.335 9.86283C120.425 9.85707 120.478 9.83721 120.475 9.73981C120.472 9.65658 120.43 9.62725 120.347 9.62791Z" fill="var(--fill-0, white)"/>
</g>
</svg>
