<svg preserveAspectRatio="none" width="100%" height="100%" overflow="visible" style="display: block;" viewBox="0 0 24 24" fill="none" xmlns="http://www.w3.org/2000/svg">
<g id="LinkedinLogo" clip-path="url(#clip0_0_105)">
<g id="Vector">
</g>
<path id="Vector_2" d="M20.25 3.00195H3.75C3.33579 3.00195 3 3.33774 3 3.75195V20.252C3 20.6662 3.33579 21.002 3.75 21.002H20.25C20.6642 21.002 21 20.6662 21 20.252V3.75195C21 3.33774 20.6642 3.00195 20.25 3.00195Z" stroke="var(--stroke-0, white)" stroke-width="2" stroke-linecap="round" stroke-linejoin="round"/>
<path id="Vector_3" d="M11.25 10.4961V16.4961" stroke="var(--stroke-0, white)" stroke-width="2" stroke-linecap="round" stroke-linejoin="round"/>
<path id="Vector_4" d="M8.25 10.4961V16.4961" stroke="var(--stroke-0, white)" stroke-width="2" stroke-linecap="round" stroke-linejoin="round"/>
<path id="Vector_5" d="M11.25 13.1211C11.25 12.4249 11.5266 11.7572 12.0188 11.2649C12.5111 10.7727 13.1788 10.4961 13.875 10.4961C14.5712 10.4961 15.2389 10.7727 15.7312 11.2649C16.2234 11.7572 16.5 12.4249 16.5 13.1211V16.4961" stroke="var(--stroke-0, white)" stroke-width="2" stroke-linecap="round" stroke-linejoin="round"/>
<path id="Vector_6" d="M8.25 8.99805C8.87132 8.99805 9.375 8.49437 9.375 7.87305C9.375 7.25173 8.87132 6.74805 8.25 6.74805C7.62868 6.74805 7.125 7.25173 7.125 7.87305C7.125 8.49437 7.62868 8.99805 8.25 8.99805Z" fill="var(--fill-0, white)"/>
</g>
<defs>
<clipPath id="clip0_0_105">
<rect width="24" height="24" fill="white"/>
</clipPath>
</defs>
</svg>
