<svg preserveAspectRatio="none" width="100%" height="100%" overflow="visible" style="display: block;" viewBox="0 0 24 24" fill="none" xmlns="http://www.w3.org/2000/svg">
<g id="YoutubeLogo" clip-path="url(#clip0_0_100)">
<g id="Vector">
</g>
<path id="Vector_2" d="M15 11.9961L10.5 8.99609V14.9961L15 11.9961Z" stroke="var(--stroke-0, white)" stroke-width="2" stroke-linecap="round" stroke-linejoin="round"/>
<path id="Vector_3" d="M2.25 12.002C2.25 14.8061 2.53781 16.4505 2.75719 17.2961C2.8152 17.5261 2.92694 17.7391 3.08322 17.9175C3.23951 18.096 3.43589 18.2348 3.65625 18.3227C6.79875 19.5349 12 19.502 12 19.502C12 19.502 17.2012 19.5349 20.3438 18.3227C20.5648 18.2353 20.7619 18.0967 20.9189 17.9182C21.0759 17.7397 21.1882 17.5265 21.2466 17.2961C21.4659 16.4524 21.7537 14.8061 21.7537 12.002C21.7537 9.19798 21.4659 7.5536 21.2466 6.70798C21.1888 6.47672 21.0768 6.26255 20.9198 6.08321C20.7628 5.90387 20.5653 5.76453 20.3438 5.67673C17.2012 4.46923 12 4.50204 12 4.50204C12 4.50204 6.79875 4.46923 3.65625 5.68142C3.43466 5.76921 3.23718 5.90856 3.08017 6.0879C2.92317 6.26723 2.81116 6.48141 2.75344 6.71267C2.53781 7.55267 2.25 9.19798 2.25 12.002Z" stroke="var(--stroke-0, white)" stroke-width="2" stroke-linecap="round" stroke-linejoin="round"/>
</g>
<defs>
<clipPath id="clip0_0_100">
<rect width="24" height="24" fill="white"/>
</clipPath>
</defs>
</svg>
